<svg width="934" height="496" viewBox="0 0 934 496" fill="none" xmlns="http://www.w3.org/2000/svg">
<path d="M259.5 348.5C277.167 348.5 286 356 286 371C286 383 282.667 391.333 276 396C269.333 400.667 258.833 403 244.5 403H234L232 429.5C231 444.833 227.667 455.167 222 460.5C216.667 465.833 207.833 468.5 195.5 468.5C177.833 468.5 169 457.667 169 436C169 432.333 169.167 429.5 169.5 427.5L172 403C123.667 403 87 402.833 62 402.5C54.6667 402.5 48.1667 399.167 42.5 392.5C36.8333 385.833 34 377.167 34 366.5C34 360.167 35.1667 353.5 37.5 346.5C52.1667 303.833 74.1667 255.333 103.5 201C109.833 189.333 116.167 181.167 122.5 176.5C129.167 171.5 139.333 169 153 169C160.333 169 165.833 170.667 169.5 174C173.5 177.333 175.5 181.667 175.5 187C175.5 192.667 173.833 198.333 170.5 204C137.833 263.667 114.833 311.833 101.5 348.5H178.5C182.5 317.5 188 288 195 260C197.667 249.667 202 241.833 208 236.5C214 230.833 222.333 228 233 228C250 228 258.5 235.333 258.5 250C258.5 254.333 258.167 257.667 257.5 260C251.5 288.333 246.167 317.833 241.5 348.5H259.5ZM459.074 463.5C426.408 463.5 401.074 452.833 383.074 431.5C365.408 410.167 356.574 379.667 356.574 340C356.574 306.333 361.741 276.667 372.074 251C382.741 225 397.408 204.833 416.074 190.5C435.074 176.167 457.074 169 482.074 169C514.741 169 539.908 179.667 557.574 201C575.574 222.333 584.574 252.833 584.574 292.5C584.574 326.167 579.241 356 568.574 382C558.241 407.667 543.574 427.667 524.574 442C505.908 456.333 484.074 463.5 459.074 463.5ZM464.074 407.5C482.074 407.5 496.241 397.5 506.574 377.5C516.908 357.5 522.074 330.333 522.074 296C522.074 273 518.241 255.5 510.574 243.5C502.908 231.167 491.741 225 477.074 225C459.074 225 444.908 235.167 434.574 255.5C424.241 275.5 419.074 302.667 419.074 337C419.074 360 422.741 377.5 430.074 389.5C437.741 401.5 449.074 407.5 464.074 407.5ZM884.559 348.5C902.225 348.5 911.059 356 911.059 371C911.059 383 907.725 391.333 901.059 396C894.392 400.667 883.892 403 869.559 403H859.059L857.059 429.5C856.059 444.833 852.725 455.167 847.059 460.5C841.725 465.833 832.892 468.5 820.559 468.5C802.892 468.5 794.059 457.667 794.059 436C794.059 432.333 794.225 429.5 794.559 427.5L797.059 403C748.725 403 712.059 402.833 687.059 402.5C679.725 402.5 673.225 399.167 667.559 392.5C661.892 385.833 659.059 377.167 659.059 366.5C659.059 360.167 660.225 353.5 662.559 346.5C677.225 303.833 699.225 255.333 728.559 201C734.892 189.333 741.225 181.167 747.559 176.5C754.225 171.5 764.392 169 778.059 169C785.392 169 790.892 170.667 794.559 174C798.559 177.333 800.559 181.667 800.559 187C800.559 192.667 798.892 198.333 795.559 204C762.892 263.667 739.892 311.833 726.559 348.5H803.559C807.559 317.5 813.059 288 820.059 260C822.725 249.667 827.059 241.833 833.059 236.5C839.059 230.833 847.392 228 858.059 228C875.059 228 883.559 235.333 883.559 250C883.559 254.333 883.225 257.667 882.559 260C876.559 288.333 871.225 317.833 866.559 348.5H884.559Z" fill="#9105C6"/>
</svg>
